# xmcd CD database file
#
# Track frame offsets:
#	150
#	21487
#	40483
#	58390
#	78808
#	97924
#	122082
#	140173
#	147355
#	163198
#	177990
#	197311
#	214128
#	232570
#
# Disc length: 3306 seconds
#
# Revision: 3
# Processed by: cddbd v1.5PL3 Copyright (c) Steve Scherf et al.
# Submitted via: CDex 1.50beta10
#
DISCID=c40ce80e
DTITLE=Verious Arties - The Best Korean TV Drama Series
DYEAR=1900
DGENRE=Soundtrack
TTITLE0=祈禱“藍色生死戀”主題曲
TTITLE1=Main Theme From“火花”主題曲
TTITLE2=“愛的火花”主題曲
TTITLE3=Forever“星星在我心”主題曲
TTITLE4=“紙鶴”主題曲
TTITLE5=“再見我的愛”主題曲
TTITLE6=“求婚”主題曲
TTITLE7=“婚紗”主題曲
TTITLE8=純真Title“四個男女四種愛”主題曲
TTITLE9=Sugar“只愛陌生人”主題曲
TTITLE10=“青春陷阱”主題曲
TTITLE11=Lovers“蕃茄”主題曲
TTITLE12=只給你“Mr. Q”主題曲
TTITLE13=“明日之愛”主題曲
EXTD=藍色生死戀
EXTT0=
EXTT1=
EXTT2=
EXTT3=
EXTT4=
EXTT5=
EXTT6=
EXTT7=
EXTT8=
EXTT9=
EXTT10=
EXTT11=
EXTT12=
EXTT13=
PLAYORDER=
